<svg width="171" height="216" viewBox="0 0 171 216" fill="none" xmlns="http://www.w3.org/2000/svg">
<g clip-path="url(#clip0_1_1551)">
<path d="M169.88 0.47998H0.47998V214.91H169.88V0.47998Z" fill="white" stroke="#BABABA" stroke-width="0" stroke-miterlimit="2"/>
<path d="M85.18 107.83C85.7212 107.83 86.16 107.391 86.16 106.85C86.16 106.309 85.7212 105.87 85.18 105.87C84.6387 105.87 84.2 106.309 84.2 106.85C84.2 107.391 84.6387 107.83 85.18 107.83Z" fill="#CFCFCF"/>
<path d="M56.71 34.05V38.35" stroke="#BABABA" stroke-linecap="round" stroke-linejoin="round"/>
<path d="M54.55 36.2H58.8601" stroke="#BABABA" stroke-linecap="round" stroke-linejoin="round"/>
<path d="M105.66 61.17C97.2899 61.17 88.77 60.83 80.7999 58.61C72.9799 56.44 65.7999 52.23 59.3999 47.36C55.2099 44.19 51.3999 41.66 45.9599 42.04C40.638 42.328 35.5487 44.3153 31.4399 47.71C24.5199 53.77 25.5599 65 28.3299 72.86C32.4899 84.73 45.1499 93 55.9099 98.35C68.34 104.56 82 108.17 95.6899 110.24C107.69 112.07 123.11 113.39 133.51 105.56C143.06 98.35 145.68 81.91 143.34 70.81C142.772 67.5309 141.026 64.5721 138.43 62.49C131.72 57.58 121.71 60.86 114.17 61.02C111.37 61.08 108.52 61.15 105.66 61.17Z" fill="#F2F2F2"/>
<path d="M92.1199 28.19C92.6611 28.19 93.0999 27.7512 93.0999 27.21C93.0999 26.6687 92.6611 26.23 92.1199 26.23C91.5787 26.23 91.1399 26.6687 91.1399 27.21C91.1399 27.7512 91.5787 28.19 92.1199 28.19Z" fill="#CFCFCF"/>
<path d="M41.2 104.5V108.8" stroke="#BABABA" stroke-linecap="round" stroke-linejoin="round"/>
<path d="M39.05 106.65H43.35" stroke="#BABABA" stroke-linecap="round" stroke-linejoin="round"/>
<path d="M85.5801 129.7C105.854 129.7 122.29 128.675 122.29 127.41C122.29 126.145 105.854 125.12 85.5801 125.12C65.3057 125.12 48.8701 126.145 48.8701 127.41C48.8701 128.675 65.3057 129.7 85.5801 129.7Z" fill="#F2F2F2"/>
<path d="M115.09 102.88H51.6799C51.2555 102.88 50.8363 102.787 50.4512 102.609C50.0661 102.431 49.7243 102.171 49.4495 101.848C49.1746 101.524 48.9733 101.145 48.8594 100.736C48.7456 100.327 48.7218 99.8989 48.7899 99.48L56.8999 50.3C57.0095 49.6155 57.3598 48.9926 57.8878 48.5435C58.4157 48.0943 59.0867 47.8484 59.7799 47.85H123.19C123.614 47.85 124.033 47.9424 124.418 48.1208C124.802 48.2991 125.144 48.5591 125.418 48.8827C125.692 49.2062 125.892 49.5856 126.005 49.9944C126.117 50.4033 126.14 50.8317 126.07 51.25L118 100.43C117.888 101.119 117.532 101.744 116.999 102.194C116.465 102.643 115.788 102.887 115.09 102.88Z" fill="#D2D2D2"/>
<path d="M115.871 46.5639L78.2325 29.7587C77.123 29.2634 75.8221 29.7612 75.3267 30.8707L63.3976 57.5885C62.9022 58.698 63.4001 59.999 64.5095 60.4943L102.148 77.2994C103.258 77.7948 104.559 77.297 105.054 76.1875L116.983 49.4696C117.479 48.3602 116.981 47.0592 115.871 46.5639Z" fill="white" stroke="#BABABA" stroke-linecap="round" stroke-linejoin="round"/>
<path d="M83.75 51.74C84.7407 50.3499 86.1816 49.345 87.8285 48.8957C89.4754 48.4464 91.2269 48.5803 92.7864 49.2747C94.3458 49.9691 95.6172 51.1813 96.3852 52.7058C97.1531 54.2304 97.3703 55.9736 97 57.64" stroke="#BABABA" stroke-width="0.68" stroke-linecap="round" stroke-linejoin="round"/>
<path d="M101.75 50.23C102.319 50.23 102.78 49.7688 102.78 49.2C102.78 48.6311 102.319 48.17 101.75 48.17C101.181 48.17 100.72 48.6311 100.72 49.2C100.72 49.7688 101.181 50.23 101.75 50.23Z" fill="#BABABA"/>
<path d="M86.83 43.57C87.3989 43.57 87.86 43.1089 87.86 42.54C87.86 41.9712 87.3989 41.51 86.83 41.51C86.2612 41.51 85.8 41.9712 85.8 42.54C85.8 43.1089 86.2612 43.57 86.83 43.57Z" fill="#BABABA"/>
<path d="M114.81 102.86H51.09C50.3147 102.857 49.572 102.547 49.0247 101.998C48.4773 101.449 48.17 100.705 48.17 99.93V55C48.1607 54.6102 48.2293 54.2225 48.3717 53.8596C48.5142 53.4966 48.7276 53.1657 48.9996 52.8863C49.2715 52.607 49.5965 52.3846 49.9554 52.2324C50.3144 52.0802 50.7001 52.0012 51.09 52H74.3C74.8386 52.002 75.3662 52.1524 75.8249 52.4346C76.2836 52.7169 76.6556 53.1201 76.9 53.6L80.21 60.08C80.4536 60.5606 80.8254 60.9645 81.2843 61.2468C81.7432 61.5292 82.2712 61.6791 82.81 61.68H114.81C115.584 61.68 116.327 61.9876 116.875 62.5352C117.422 63.0829 117.73 63.8256 117.73 64.6V99.93C117.73 100.705 117.423 101.449 116.875 101.998C116.328 102.547 115.585 102.857 114.81 102.86Z" fill="white" stroke="#BABABA" stroke-linecap="round" stroke-linejoin="round"/>
<path d="M105 63.21C101.319 63.208 97.7197 64.2978 94.658 66.3415C91.5963 68.3852 89.2094 71.291 87.7994 74.6914C86.3893 78.0917 86.0193 81.8339 86.7363 85.4445C87.4532 89.0552 89.2248 92.3721 91.8271 94.9757C94.4294 97.5794 97.7453 99.3528 101.356 100.072C104.966 100.791 108.708 100.423 112.109 99.0144C115.51 97.6061 118.418 95.2208 120.463 92.1602C122.508 89.0996 123.6 85.5012 123.6 81.82C123.6 76.8861 121.641 72.1541 118.153 68.6643C114.665 65.1745 109.934 63.2127 105 63.21Z" fill="white" stroke="#BABABA" stroke-linecap="round" stroke-linejoin="round"/>
<path d="M118.24 95.32L123.2 100.28" stroke="#BABABA" stroke-linecap="round" stroke-linejoin="round"/>
<path d="M122.639 97.8701L121.098 99.4821C120.408 100.205 120.433 101.35 121.156 102.041L134.529 114.825C135.251 115.516 136.397 115.49 137.088 114.767L138.629 113.155C139.319 112.433 139.294 111.287 138.571 110.596L125.198 97.8125C124.476 97.1217 123.33 97.1475 122.639 97.8701Z" fill="#D2D2D2"/>
<path d="M132.54 27.21V31.52" stroke="#BABABA" stroke-linecap="round" stroke-linejoin="round"/>
<path d="M130.38 29.37H134.69" stroke="#BABABA" stroke-linecap="round" stroke-linejoin="round"/>
<path d="M53.9029 159.77V167H53.2129C53.1063 167 53.0163 166.983 52.9429 166.95C52.8729 166.913 52.8046 166.853 52.7379 166.77L48.9629 161.95C48.9829 162.17 48.9929 162.373 48.9929 162.56V167H47.8079V159.77H48.5129C48.5696 159.77 48.6179 159.773 48.6579 159.78C48.7013 159.783 48.7379 159.793 48.7679 159.81C48.8013 159.823 48.8329 159.845 48.8629 159.875C48.8929 159.902 48.9263 159.938 48.9629 159.985L52.7529 164.825C52.7429 164.708 52.7346 164.593 52.7279 164.48C52.7213 164.367 52.7179 164.262 52.7179 164.165V159.77H53.9029ZM57.4318 161.79C57.8118 161.79 58.1568 161.852 58.4668 161.975C58.7801 162.098 59.0468 162.273 59.2668 162.5C59.4901 162.727 59.6618 163.003 59.7818 163.33C59.9018 163.657 59.9618 164.022 59.9618 164.425C59.9618 164.832 59.9018 165.198 59.7818 165.525C59.6618 165.852 59.4901 166.13 59.2668 166.36C59.0468 166.59 58.7801 166.767 58.4668 166.89C58.1568 167.013 57.8118 167.075 57.4318 167.075C57.0484 167.075 56.7001 167.013 56.3868 166.89C56.0734 166.767 55.8051 166.59 55.5818 166.36C55.3618 166.13 55.1901 165.852 55.0668 165.525C54.9468 165.198 54.8868 164.832 54.8868 164.425C54.8868 164.022 54.9468 163.657 55.0668 163.33C55.1901 163.003 55.3618 162.727 55.5818 162.5C55.8051 162.273 56.0734 162.098 56.3868 161.975C56.7001 161.852 57.0484 161.79 57.4318 161.79ZM57.4318 166.125C57.8584 166.125 58.1734 165.982 58.3768 165.695C58.5834 165.408 58.6868 164.988 58.6868 164.435C58.6868 163.882 58.5834 163.46 58.3768 163.17C58.1734 162.88 57.8584 162.735 57.4318 162.735C56.9984 162.735 56.6768 162.882 56.4668 163.175C56.2601 163.465 56.1568 163.885 56.1568 164.435C56.1568 164.985 56.2601 165.405 56.4668 165.695C56.6768 165.982 56.9984 166.125 57.4318 166.125ZM65.7156 163.21C65.9689 163.21 66.1889 163.178 66.3756 163.115C66.5656 163.052 66.7206 162.965 66.8406 162.855C66.9639 162.742 67.0556 162.608 67.1156 162.455C67.1756 162.302 67.2056 162.133 67.2056 161.95C67.2056 161.583 67.0839 161.302 66.8406 161.105C66.6006 160.908 66.2323 160.81 65.7356 160.81H64.8756V163.21H65.7156ZM69.1756 167H67.9606C67.7306 167 67.5639 166.91 67.4606 166.73L65.9406 164.415C65.8839 164.328 65.8206 164.267 65.7506 164.23C65.6839 164.193 65.5839 164.175 65.4506 164.175H64.8756V167H63.5306V159.77H65.7356C66.2256 159.77 66.6456 159.822 66.9956 159.925C67.3489 160.025 67.6373 160.167 67.8606 160.35C68.0873 160.533 68.2539 160.753 68.3606 161.01C68.4673 161.263 68.5206 161.543 68.5206 161.85C68.5206 162.093 68.4839 162.323 68.4106 162.54C68.3406 162.757 68.2373 162.953 68.1006 163.13C67.9673 163.307 67.8006 163.462 67.6006 163.595C67.4039 163.728 67.1789 163.833 66.9256 163.91C67.0123 163.96 67.0923 164.02 67.1656 164.09C67.2389 164.157 67.3056 164.237 67.3656 164.33L69.1756 167ZM72.7343 163.845C72.7343 163.685 72.711 163.535 72.6643 163.395C72.621 163.252 72.5543 163.127 72.4643 163.02C72.3743 162.913 72.2593 162.83 72.1193 162.77C71.9827 162.707 71.8227 162.675 71.6393 162.675C71.2827 162.675 71.001 162.777 70.7943 162.98C70.591 163.183 70.461 163.472 70.4043 163.845H72.7343ZM70.3793 164.59C70.3993 164.853 70.446 165.082 70.5193 165.275C70.5927 165.465 70.6893 165.623 70.8093 165.75C70.9293 165.873 71.071 165.967 71.2343 166.03C71.401 166.09 71.5843 166.12 71.7843 166.12C71.9843 166.12 72.156 166.097 72.2993 166.05C72.446 166.003 72.5727 165.952 72.6793 165.895C72.7893 165.838 72.8843 165.787 72.9643 165.74C73.0477 165.693 73.1277 165.67 73.2043 165.67C73.3077 165.67 73.3843 165.708 73.4343 165.785L73.7893 166.235C73.6527 166.395 73.4993 166.53 73.3293 166.64C73.1593 166.747 72.981 166.833 72.7943 166.9C72.611 166.963 72.4227 167.008 72.2293 167.035C72.0393 167.062 71.8543 167.075 71.6743 167.075C71.3177 167.075 70.986 167.017 70.6793 166.9C70.3727 166.78 70.106 166.605 69.8793 166.375C69.6527 166.142 69.4743 165.855 69.3443 165.515C69.2143 165.172 69.1493 164.775 69.1493 164.325C69.1493 163.975 69.206 163.647 69.3193 163.34C69.4327 163.03 69.5943 162.762 69.8043 162.535C70.0177 162.305 70.276 162.123 70.5793 161.99C70.886 161.857 71.231 161.79 71.6143 161.79C71.9377 161.79 72.236 161.842 72.5093 161.945C72.7827 162.048 73.0177 162.2 73.2143 162.4C73.411 162.597 73.5643 162.84 73.6743 163.13C73.7877 163.417 73.8443 163.745 73.8443 164.115C73.8443 164.302 73.8243 164.428 73.7843 164.495C73.7443 164.558 73.6677 164.59 73.5543 164.59H70.3793ZM77.9011 162.87C77.8678 162.923 77.8328 162.962 77.7961 162.985C77.7595 163.005 77.7128 163.015 77.6561 163.015C77.5961 163.015 77.5311 162.998 77.4611 162.965C77.3945 162.932 77.3161 162.895 77.2261 162.855C77.1361 162.812 77.0328 162.773 76.9161 162.74C76.8028 162.707 76.6678 162.69 76.5111 162.69C76.2678 162.69 76.0761 162.742 75.9361 162.845C75.7995 162.948 75.7311 163.083 75.7311 163.25C75.7311 163.36 75.7661 163.453 75.8361 163.53C75.9095 163.603 76.0045 163.668 76.1211 163.725C76.2411 163.782 76.3761 163.833 76.5261 163.88C76.6761 163.923 76.8278 163.972 76.9811 164.025C77.1378 164.078 77.2911 164.14 77.4411 164.21C77.5911 164.277 77.7245 164.363 77.8411 164.47C77.9611 164.573 78.0561 164.698 78.1261 164.845C78.1995 164.992 78.2361 165.168 78.2361 165.375C78.2361 165.622 78.1911 165.85 78.1011 166.06C78.0145 166.267 77.8845 166.447 77.7111 166.6C77.5378 166.75 77.3228 166.868 77.0661 166.955C76.8128 167.038 76.5195 167.08 76.1861 167.08C76.0095 167.08 75.8361 167.063 75.6661 167.03C75.4995 167 75.3378 166.957 75.1811 166.9C75.0278 166.843 74.8845 166.777 74.7511 166.7C74.6211 166.623 74.5061 166.54 74.4061 166.45L74.6911 165.98C74.7278 165.923 74.7711 165.88 74.8211 165.85C74.8711 165.82 74.9345 165.805 75.0111 165.805C75.0878 165.805 75.1595 165.827 75.2261 165.87C75.2961 165.913 75.3761 165.96 75.4661 166.01C75.5561 166.06 75.6611 166.107 75.7811 166.15C75.9045 166.193 76.0595 166.215 76.2461 166.215C76.3928 166.215 76.5178 166.198 76.6211 166.165C76.7278 166.128 76.8145 166.082 76.8811 166.025C76.9511 165.968 77.0011 165.903 77.0311 165.83C77.0645 165.753 77.0811 165.675 77.0811 165.595C77.0811 165.475 77.0445 165.377 76.9711 165.3C76.9011 165.223 76.8061 165.157 76.6861 165.1C76.5695 165.043 76.4345 164.993 76.2811 164.95C76.1311 164.903 75.9761 164.853 75.8161 164.8C75.6595 164.747 75.5045 164.685 75.3511 164.615C75.2011 164.542 75.0661 164.45 74.9461 164.34C74.8295 164.23 74.7345 164.095 74.6611 163.935C74.5911 163.775 74.5561 163.582 74.5561 163.355C74.5561 163.145 74.5978 162.945 74.6811 162.755C74.7645 162.565 74.8861 162.4 75.0461 162.26C75.2095 162.117 75.4111 162.003 75.6511 161.92C75.8945 161.833 76.1745 161.79 76.4911 161.79C76.8445 161.79 77.1661 161.848 77.4561 161.965C77.7461 162.082 77.9878 162.235 78.1811 162.425L77.9011 162.87ZM83.5857 161.87V167H82.8307C82.6673 167 82.564 166.925 82.5207 166.775L82.4357 166.365C82.2257 166.578 81.994 166.752 81.7407 166.885C81.4873 167.015 81.189 167.08 80.8457 167.08C80.5657 167.08 80.3173 167.033 80.1007 166.94C79.8873 166.843 79.7073 166.708 79.5607 166.535C79.414 166.362 79.3023 166.157 79.2257 165.92C79.1523 165.68 79.1157 165.417 79.1157 165.13V161.87H80.3507V165.13C80.3507 165.443 80.4223 165.687 80.5657 165.86C80.7123 166.03 80.9307 166.115 81.2207 166.115C81.434 166.115 81.634 166.068 81.8207 165.975C82.0073 165.878 82.184 165.747 82.3507 165.58V161.87H83.5857ZM86.0602 159.57V167H84.8252V159.57H86.0602ZM89.0007 167.08C88.554 167.08 88.2107 166.955 87.9707 166.705C87.734 166.452 87.6157 166.103 87.6157 165.66V162.795H87.0907C87.024 162.795 86.9673 162.773 86.9207 162.73C86.874 162.687 86.8507 162.622 86.8507 162.535V162.045L87.6757 161.91L87.9357 160.51C87.9523 160.443 87.984 160.392 88.0307 160.355C88.0773 160.318 88.1373 160.3 88.2107 160.3H88.8507V161.915H90.2207V162.795H88.8507V165.575C88.8507 165.735 88.889 165.86 88.9657 165.95C89.0457 166.04 89.154 166.085 89.2907 166.085C89.3673 166.085 89.4307 166.077 89.4807 166.06C89.534 166.04 89.579 166.02 89.6157 166C89.6557 165.98 89.6907 165.962 89.7207 165.945C89.7507 165.925 89.7807 165.915 89.8107 165.915C89.8473 165.915 89.8773 165.925 89.9007 165.945C89.924 165.962 89.949 165.988 89.9757 166.025L90.3457 166.625C90.1657 166.775 89.959 166.888 89.7257 166.965C89.4923 167.042 89.2507 167.08 89.0007 167.08ZM97.4196 160.84V162.98H100.13V164.055H97.4196V167H96.0696V159.77H100.63V160.84H97.4196ZM103.359 161.79C103.739 161.79 104.084 161.852 104.394 161.975C104.708 162.098 104.974 162.273 105.194 162.5C105.418 162.727 105.589 163.003 105.709 163.33C105.829 163.657 105.889 164.022 105.889 164.425C105.889 164.832 105.829 165.198 105.709 165.525C105.589 165.852 105.418 166.13 105.194 166.36C104.974 166.59 104.708 166.767 104.394 166.89C104.084 167.013 103.739 167.075 103.359 167.075C102.976 167.075 102.628 167.013 102.314 166.89C102.001 166.767 101.733 166.59 101.509 166.36C101.289 166.13 101.118 165.852 100.994 165.525C100.874 165.198 100.814 164.832 100.814 164.425C100.814 164.022 100.874 163.657 100.994 163.33C101.118 163.003 101.289 162.727 101.509 162.5C101.733 162.273 102.001 162.098 102.314 161.975C102.628 161.852 102.976 161.79 103.359 161.79ZM103.359 166.125C103.786 166.125 104.101 165.982 104.304 165.695C104.511 165.408 104.614 164.988 104.614 164.435C104.614 163.882 104.511 163.46 104.304 163.17C104.101 162.88 103.786 162.735 103.359 162.735C102.926 162.735 102.604 162.882 102.394 163.175C102.188 163.465 102.084 163.885 102.084 164.435C102.084 164.985 102.188 165.405 102.394 165.695C102.604 165.982 102.926 166.125 103.359 166.125ZM111.252 161.87V167H110.497C110.333 167 110.23 166.925 110.187 166.775L110.102 166.365C109.892 166.578 109.66 166.752 109.407 166.885C109.153 167.015 108.855 167.08 108.512 167.08C108.232 167.08 107.983 167.033 107.767 166.94C107.553 166.843 107.373 166.708 107.227 166.535C107.08 166.362 106.968 166.157 106.892 165.92C106.818 165.68 106.782 165.417 106.782 165.13V161.87H108.017V165.13C108.017 165.443 108.088 165.687 108.232 165.86C108.378 166.03 108.597 166.115 108.887 166.115C109.1 166.115 109.3 166.068 109.487 165.975C109.673 165.878 109.85 165.747 110.017 165.58V161.87H111.252ZM113.631 162.5C113.735 162.397 113.843 162.302 113.956 162.215C114.073 162.125 114.195 162.05 114.321 161.99C114.451 161.927 114.59 161.878 114.736 161.845C114.883 161.808 115.043 161.79 115.216 161.79C115.496 161.79 115.745 161.838 115.961 161.935C116.178 162.028 116.358 162.162 116.501 162.335C116.648 162.505 116.758 162.71 116.831 162.95C116.908 163.187 116.946 163.448 116.946 163.735V167H115.711V163.735C115.711 163.422 115.64 163.18 115.496 163.01C115.353 162.837 115.135 162.75 114.841 162.75C114.628 162.75 114.428 162.798 114.241 162.895C114.055 162.992 113.878 163.123 113.711 163.29V167H112.476V161.87H113.231C113.391 161.87 113.496 161.945 113.546 162.095L113.631 162.5ZM121.341 163.18C121.201 163.01 121.047 162.89 120.881 162.82C120.717 162.75 120.541 162.715 120.351 162.715C120.164 162.715 119.996 162.75 119.846 162.82C119.696 162.89 119.567 162.997 119.461 163.14C119.354 163.28 119.272 163.46 119.216 163.68C119.159 163.897 119.131 164.153 119.131 164.45C119.131 164.75 119.154 165.005 119.201 165.215C119.251 165.422 119.321 165.592 119.411 165.725C119.501 165.855 119.611 165.95 119.741 166.01C119.871 166.067 120.016 166.095 120.176 166.095C120.432 166.095 120.651 166.042 120.831 165.935C121.011 165.828 121.181 165.677 121.341 165.48V163.18ZM122.576 159.57V167H121.821C121.657 167 121.554 166.925 121.511 166.775L121.406 166.28C121.199 166.517 120.961 166.708 120.691 166.855C120.424 167.002 120.112 167.075 119.756 167.075C119.476 167.075 119.219 167.017 118.986 166.9C118.752 166.783 118.551 166.615 118.381 166.395C118.214 166.172 118.084 165.897 117.991 165.57C117.901 165.243 117.856 164.87 117.856 164.45C117.856 164.07 117.907 163.717 118.011 163.39C118.114 163.063 118.262 162.78 118.456 162.54C118.649 162.3 118.881 162.113 119.151 161.98C119.421 161.843 119.724 161.775 120.061 161.775C120.347 161.775 120.592 161.82 120.796 161.91C120.999 162 121.181 162.122 121.341 162.275V159.57H122.576ZM125.175 159.77V162.63C125.175 162.933 125.16 163.232 125.13 163.525C125.1 163.815 125.061 164.123 125.015 164.45H124.175C124.128 164.123 124.09 163.815 124.06 163.525C124.03 163.232 124.015 162.933 124.015 162.63V159.77H125.175ZM123.82 166.32C123.82 166.217 123.838 166.118 123.875 166.025C123.915 165.932 123.968 165.852 124.035 165.785C124.105 165.718 124.186 165.665 124.28 165.625C124.373 165.585 124.473 165.565 124.58 165.565C124.683 165.565 124.781 165.585 124.875 165.625C124.968 165.665 125.048 165.718 125.115 165.785C125.185 165.852 125.24 165.932 125.28 166.025C125.32 166.118 125.34 166.217 125.34 166.32C125.34 166.427 125.32 166.527 125.28 166.62C125.24 166.71 125.185 166.788 125.115 166.855C125.048 166.922 124.968 166.973 124.875 167.01C124.781 167.05 124.683 167.07 124.58 167.07C124.473 167.07 124.373 167.05 124.28 167.01C124.186 166.973 124.105 166.922 124.035 166.855C123.968 166.788 123.915 166.71 123.875 166.62C123.838 166.527 123.82 166.427 123.82 166.32Z" fill="#939090"/>
</g>
<defs>
<clipPath id="clip0_1_1551">
<rect width="170.35" height="215.38" fill="white"/>
</clipPath>
</defs>
</svg>
